<svg xmlns="http://www.w3.org/2000/svg" width="318" height="318" fill="none" viewBox="0 0 318 318">
  <path fill="#fff" d="M0 0h318v318H0z"/>
  <path fill="#E8342B" fill-rule="evenodd" d="M266.272 180.2c0-55.732-45.18-100.912-100.912-100.912-55.732 0-105.18 45.275-100.912 100.912 5.088 66.313 201.824 53.682 201.824 0Z" clip-rule="evenodd"/>
  <path fill="#fff" d="M85.698 178.923c.33-.03.76.004.854.322.003.384-.483.543-.863.59l-6.153.766c.953.809 1.048 2.414.241 3.37-.806.956-2.348 1.152-3.404.481-.352-.224-.652-.527-1.022-.719-.37-.193-.859-.25-1.18.017-.724.603-1.816.441-2.683.07-.86-.367-1.707-.994-1.907-1.907-.199-.904.295-1.816.88-2.534.584-.719 1.29-1.369 1.64-2.226.515-1.257 2.035-1.883 3.382-1.705 1.347.177 2.526.997 3.507 1.937.631.605 1.656.368 2.49.107.835-.261 1.884-.454 2.469.196"/>
  <path fill="#fff" fill-rule="evenodd" d="M204.116 175.393c0-9.411 6.956-11.58 11.37-11.469 4.414.111 8.625 2.953 10.263 6.916 1.638 3.964.617 8.822-2.483 11.861-3.101 3.038-9.647 3.075-11.534 2.503-1.887-.573-7.616-4.558-7.616-9.811Z" clip-rule="evenodd"/>
  <path fill="#00160A" fill-rule="evenodd" d="M222.01 168.911c3.736-.299 7.574 1.064 10.285 3.652 4.2 4.011 5.284 10.909 2.518 16.015-2.767 5.106-9.138 7.964-14.792 6.636-5.384-1.266-9.696-6.198-10.232-11.703-.536-5.504 2.744-11.175 7.783-13.455a13.397 13.397 0 0 1 4.438-1.145m6.483 2.581c-1.322-.972-2.775-1.785-4.347-2.099-1.788-.357-3.662-.044-5.339.716-4.263 1.93-7.17 6.93-6.892 11.917.278 4.986 3.741 9.588 8.211 10.86 4.47 1.272 9.602-.91 12.041-5.153 2.44-4.243 1.965-10.208-1.136-13.913-.746-.891-1.618-1.652-2.538-2.328Z" clip-rule="evenodd"/>
  <path fill="#fff" fill-rule="evenodd" d="M108.94 176.067c-.04-.613-.035-1.233.073-1.838.083-.458.223-.904.364-1.348.303-.958.607-1.919 1.022-2.834 2.035-4.485 6.9-7.522 11.823-7.394 4.924.127 9.62 3.406 11.447 7.98 1.828 4.573.689 10.178-2.769 13.685-3.459 3.506-9.039 4.724-13.648 2.988-4.609-1.736-7.997-6.324-8.312-11.239" clip-rule="evenodd"/>
  <path fill="#fff" fill-rule="evenodd" d="M122.147 120.657c.025 1.947-.473 4.029.428 5.755 1.668 3.198 6.354 2.604 9.8 1.54l-8.498-9.671 17.605-17.975c.489-.5 1.054-1.033 1.753-1.047.806-.016 1.437.659 1.953 1.278l5.766 6.917c1.584 1.899 3.092 4.976 1.154 6.512l21.816-1.481c-1.362-7.777 1.14-17.351 3.611-24.851.246-.748.544-1.56 1.227-1.952.478-.274 1.057-.285 1.609-.288l39.831-.275c.804-.006 1.653 0 2.348.405.596.347.998.943 1.374 1.521 11.233 17.269 18.245 38.957 20.262 59.458.253 2.571 3.548 20.987 0 21.533-16.899 2.601-13.587-12.714-31.434-10.473-14.664 1.84-11.893 10.473-20.369 12.155-7.613 1.511-33.582 1.887-41.999 2.309-11.548.578-12.364-16.88-29.95-16.17-17.586.709-17.184 20.677-26.658 18.391-.395-.095-4.684-2.59-4.78-2.889-1.397-4.315-2.444-20.107-2.444-20.107l-3.307-.734s-.243-8.153 0-8.413c.428-.459 7.925.364 11.17 0-.96-6.657-1.918-13.313-2.876-19.969-.083-.575-.154-1.206.158-1.696.347-.544 1.045-.724 1.677-.856a154.177 154.177 0 0 1 25.689-3.147c1.946-.074 3.058 2.273 3.084 4.22Z" clip-rule="evenodd"/>
  <path fill="#FFB61D" fill-rule="evenodd" d="m105.085 138.817-3.806.271-2.139-20.59 3.333-.548 2.612 20.867Z" clip-rule="evenodd"/>
  <path fill="#E7EAEE" fill-rule="evenodd" d="M194.969 99.6c1.031-.198 20.803 13.523 20.599 13.746-.205.223-21.007-13.668-20.599-13.746Zm8.48 0c.8-.142 10.934 6.709 10.652 7.108-.282.399-11.163-7.017-10.652-7.108Zm-10.6 4.24c-.384-.679 10.957 7.168 10.652 7.108-2.922-.571-10.539-6.909-10.652-7.108Z" clip-rule="evenodd"/>
  <path fill="#00160A" fill-rule="evenodd" d="M191.509 125.978c.249.197.147.643-.134.79-.281.147-.638.049-.887-.148-.748-.593-.593-1.85.062-2.545.655-.694 1.627-.971 2.549-1.219l1.148-.308c.78-.21 1.61-.419 2.384-.187.774.232 1.419 1.09 1.119 1.84-.189.472-.689.758-1.19.848-.5.09-1.013.022-1.52-.013a11.302 11.302 0 0 0-2.982.194c-.192.038-.394.088-.532.227-.137.14-.171.4-.017.521Zm5.017 42.767-.777 3.214c-.079.327-.166.67-.396.917-.342.366-.894.418-1.394.447a1753.045 1753.045 0 0 1-47.252 2.069c-1.066.032-2.07-.575-2.769-1.38-.699-.804-1.144-1.793-1.579-2.766.689-.167 1.341.381 1.761.953.42.571.789 1.245 1.441 1.523.429.183.913.161 1.379.136l45.911-2.465c.551-.03 1.15-.078 1.56-.448.421-.381.522-.992.769-1.504.247-.511.853-.979 1.346-.696Z" clip-rule="evenodd"/>
  <path fill="#E7EAEE" fill-rule="evenodd" d="M78.778 177.895a6.745 6.745 0 0 0-2.714-1.758c-.699-.241-1.5-.356-2.156-.016-.656.34-1.023 1.279-.56 1.856.242.304-.306.592-.686.675-1.136.249-1.993 1.508-1.67 2.625.321 1.117 1.883 1.7 2.785.966.326-.266.545-.654.898-.883.354-.228.95-.18 1.059.227a2.303 2.303 0 0 0 1.891 1.648c.575.072 1.255-.163 1.434-.714.315-.977-1.125-1.989-.635-2.891.247-.455.846-.553 1.362-.599l5.912-.532c.33-.03.76.004.854.322.003.384-.483.543-.863.59l-6.153.766c.953.809 1.048 2.414.241 3.37-.806.956-2.348 1.152-3.404.481-.352-.224-.652-.527-1.022-.719-.37-.193-.859-.25-1.18.017-.724.603-1.816.441-2.683.07-.86-.367-1.707-.994-1.907-1.907-.199-.904.295-1.816.88-2.534.584-.719 1.29-1.369 1.64-2.226.515-1.257 2.035-1.883 3.382-1.705 1.347.177 2.526.997 3.507 1.937.631.605 1.656.368 2.49.107.835-.261 1.884-.454 2.469.196l-3.612.82c-.536.122-1.183.213-1.559-.189Z" clip-rule="evenodd"/>
  <path fill="#00160A" fill-rule="evenodd" d="M102.881 176.73c-.058-.904-.051-1.817.109-2.708.121-.676.328-1.333.535-1.988.447-1.412.895-2.828 1.507-4.176 2.999-6.61 10.17-11.087 17.426-10.899 7.256.189 14.178 5.021 16.871 11.762 2.693 6.741 1.015 15.002-4.082 20.17-5.097 5.168-13.321 6.962-20.114 4.404-6.793-2.559-11.787-9.321-12.252-16.565m3.807-6.762c-.323.858-.574 1.757-.573 2.673.003 2.809.224 5.66 1.178 8.302 2.004 5.554 7.407 9.712 13.287 10.249 5.88.537 11.937-2.562 14.96-7.634 3.023-5.072 2.873-11.861-.353-16.806-3.225-4.946-9.363-7.818-15.229-7.149-5.867.669-11.192 4.838-13.27 10.365Zm114.828-10.381c6.151 2.586 10.433 9.095 10.371 15.767-.061 6.673-4.462 13.102-10.66 15.574-6.198 2.471-13.816.835-18.452-3.964-4.636-4.799-6.009-12.468-3.325-18.577.635-1.445 1.494-2.824 2.714-3.825 2.765-2.267 5.629-4.583 9.05-5.626 3.358-1.023 7.065-.709 10.302.651m-14.309 3.229c-.808.517-1.571 1.12-2.168 1.87-.632.793-1.059 1.726-1.48 2.648-.631 1.383-1.265 2.773-1.659 4.241-1.353 5.045.477 10.793 4.479 14.149s9.963 4.161 14.723 2.012c4.76-2.148 8.095-7.132 8.295-12.351.199-5.219-2.732-10.431-7.281-12.997-4.549-2.565-10.508-2.384-14.909.428Zm8.871-71.712-32.007.681c-.266.006-.561.024-.747.214-.121.122-.172.295-.218.461-2.366 8.629-.449 17.77 1.158 26.572a371.527 371.527 0 0 1 2.635 16.523c.543 3.98 1.022 7.982.989 11.999-.011 1.277.887 2.431 2.005 3.048 1.118.617 2.427.784 3.702.846a26.35 26.35 0 0 0 7.996-.844c.484-.129.986-.272 1.479-.18.492.092.966.506.936 1.006-.034.579-.66.911-1.206 1.105a20.207 20.207 0 0 1-10.774.751c-1.713-.353-3.499-1.017-4.481-2.464-.558-.823-.797-1.816-1.014-2.787-2.187-9.768-3.279-19.742-4.345-29.695-.969-9.044-1.922-18.16-1.109-27.22.025-.28.056-.57.204-.81.319-.511 1.023-.58 1.626-.596l33.855-.83c.64-.017 1.328-.019 1.856.343.389.267.632.695.862 1.107l12.274 22.034c.819 1.47 1.663 3.158 1.154 4.761-.377 1.189-1.454 2.051-2.624 2.486-1.169.434-2.437.505-3.683.572l-6.708.358-16.571.884c-.317.017-.671.022-.906-.193-.342-.312-.194-.923.171-1.208.365-.285.855-.335 1.317-.374l25.008-2.109c.653-.055 1.106-.741 1.136-1.396.029-.655-.254-1.278-.534-1.872a326.968 326.968 0 0 0-11.719-22.579c-.316-.554-1.079-.607-1.717-.594Z" clip-rule="evenodd"/>
  <path fill="#00160A" fill-rule="evenodd" d="M115.465 164.801c3.729-2.063 8.579-1.822 12.169.474 3.589 2.297 5.826 6.51 5.873 10.771.048 4.34-2.305 8.786-6.236 10.627-1.37.642-2.88.962-4.392 1.021-5.51.215-11.023-3.408-12.789-8.632-1.765-5.224.551-11.591 5.375-14.261m8.51 21.026c1.449-.242 2.856-.758 4.088-1.558a9.88 9.88 0 0 0 3.103-3.225c2.002-3.368 1.746-7.891-.476-11.117-2.222-3.226-6.241-5.067-10.151-4.828-1.458.089-2.905.447-4.208 1.107-4.497 2.275-6.562 8.279-4.659 12.945 1.903 4.667 7.333 7.505 12.303 6.676Zm30.489-28.533c-.649-.576-1.685-.547-2.318-1.141.179-.645.774-1.069 1.192-1.591.987-1.235.884-3.206-.228-4.33-.563-.569-1.379-1.005-1.527-1.791 1.162-.199 2.337-.574 3.213-1.365.875-.791 1.383-2.072.998-3.187-.118-.343-.316-.67-.32-1.032-.005-.362.31-.763.658-.664 1.866.532 4.046-.708 4.541-2.583.213-.806 1.399-.726 2.143-.352.744.375 1.692.849 2.324.307.536-.46.634-1.526 1.339-1.513.365.007.623.34.878.601.878.903 2.339 1.176 3.485.653.4-.184.771-.456 1.206-.526.435-.07.971.175.998.614.085 1.33 1.538 2.392 2.83 2.069.494-.124 1.331-.097 1.164.384-.51 1.466.581 3.262 2.117 3.485.391.057.806.03 1.16.206.354.176.589.678.323.97-1.143 1.254-.661 3.582.887 4.278.417.188.318.839.003 1.17-.316.331-.771.532-1.002.927-.402.686.076 1.562.66 2.102.584.54 1.317.994 1.591 1.741-1.099-.42-2.46.012-3.116.989-.656.976-.541 2.4.263 3.258-.425.763-1.559.46-2.429.536-1.058.093-1.985 1.01-2.09 2.067-.045.46.046.942-.118 1.375-.164.432-.762.744-1.089.418-1.215-1.216-3.541-.971-4.478.47-.222.343-.441.78-.848.817-.64.058-.844-.867-1.365-1.243-.646-.466-1.563.063-2.017.717-.454.655-.738 1.473-1.406 1.906-1.27-.932-.885-3.571-2.445-3.787-.674-.093-1.267.407-1.905.643-.638.236-1.621-.079-1.502-.749.195-1.096.03-2.556-1.046-2.84-1.062-.28-2.42.824-3.153.006.794-1.24 1.53-3.037.429-4.015Zm.708-6.821c-.488.883-.399 1.954-.49 2.958-.091 1.004-.513 2.138-1.476 2.434a3.068 3.068 0 0 1 2.543 1.801 3.07 3.07 0 0 1-.422 3.088c.893-.669 2.255-.474 3.065.293.81.766 1.101 1.976.936 3.079a3.112 3.112 0 0 1 3.208-.206 3.113 3.113 0 0 1 1.604 2.786c.274-1.001 1.061-1.876 2.065-2.139 1.003-.264 2.181.165 2.686 1.071.047-.683.692-1.167 1.326-1.426a5.33 5.33 0 0 1 4.272.13c-.161-2.131 2.067-4.088 4.16-3.651-.655-.683-.618-1.795-.254-2.668.459-1.101 1.532-2.06 2.718-1.934a2.415 2.415 0 0 1-1.456-1.544c-.354-1.178.291-2.492 1.295-3.204-1.267-.266-1.675-1.842-1.832-3.127-.082-.67-.042-1.547.598-1.762a6.422 6.422 0 0 1-3.341-2.277c-.384-.505-.659-1.303-.172-1.709a6.266 6.266 0 0 1-2.879-.875c-.662-.395-1.313-1.12-1.062-1.849-1.771.875-4.002.736-5.651-.352-.499.784-1.476 1.164-2.404 1.161-.929-.004-1.824-.335-2.675-.708.101.614-.314 1.192-.763 1.623a6.86 6.86 0 0 1-4.26 1.875c.703 2.417-1.17 5.238-3.671 5.528.605.74 1.433 1.281 2.332 1.604Zm61.443 34.636a10.486 10.486 0 0 1-4.731-.446c-4.805-1.611-7.945-7.106-6.895-12.063 1.05-4.957 6.149-8.707 11.194-8.231 5.045.475 9.353 5.111 9.459 10.177.105 5.066-4.006 9.877-9.027 10.563m3.626-2.141c3.375-2.049 5.228-6.332 4.409-10.195-.818-3.863-4.249-7.027-8.165-7.53-3.917-.503-8.036 1.69-9.805 5.22-1.769 3.53-1.06 8.143 1.688 10.979 2.998 3.094 8.19 3.761 11.873 1.526Z" clip-rule="evenodd"/>
  <path fill="#00160A" fill-rule="evenodd" d="M167.293 140.715c4.307-.05 8.54 2.515 10.492 6.354 1.951 3.84 1.527 8.771-1.052 12.221-2.579 3.45-7.188 5.253-11.423 4.469-3.741-.693-7.062-3.347-8.562-6.844-1.5-3.496-1.136-7.732.94-10.92 2.075-3.189 5.801-5.237 9.605-5.28Zm10.989 10.915a10.879 10.879 0 0 0-1.514-4.878c-2.69-4.498-8.925-6.467-13.711-4.33-4.785 2.137-7.48 8.094-5.927 13.1 1.554 5.005 7.149 8.389 12.303 7.44 5.155-.948 9.179-6.102 8.849-11.332Z" clip-rule="evenodd"/>
  <path fill="#FFB61D" fill-rule="evenodd" d="M173.318 152.364a3.898 3.898 0 0 1-3.356 1.312c-.43-.051-1.092.056-.977.473l4.404 1.548c.813.286 1.046 1.454.562 2.168-.484.713-1.44.979-2.296.874-.855-.105-1.638-.517-2.399-.921l-2.302-1.223c1.035-.409 2.158.219 3.14.745.981.526 2.284.937 3.125.208.128-.11.24-.252.263-.419.054-.399-.39-.665-.763-.817l-3.538-1.439c-.595-.243-1.297-.033-1.807.358-.511.391-.873.939-1.243 1.464-.784 1.113-1.727 2.231-3.034 2.61-1.307.378-3.003-.361-3.138-1.715-.084-.851.45-1.647 1.083-2.222.632-.576 1.385-1.017 1.965-1.646.073-.079.147-.169.156-.277.018-.224-.234-.362-.445-.44l-3.416-1.261c-.492-.181-.186-1.032.335-1.095.521-.063.978.314 1.394.633 1.099.843 2.623 1.434 3.849.792.875-.459 1.378-1.532 1.171-2.498-.282-1.316.212-2.768 1.237-3.64 1.026-.871 2.54-1.124 3.792-.633-.956.45-1.392 1.756-.898 2.691.494.934 1.818 1.31 2.729.773.334-.197.778-.487 1.047-.209.074.078.11.184.139.288a3.898 3.898 0 0 1-.779 3.518Zm-6.143-3.663c-.003 1.439.805 2.921 2.14 3.459 1.335.537 3.106-.128 3.541-1.5.097-.305-.069-.796-.361-.664-.795.36-1.734-.057-2.406-.615-.438-.363-.834-.808-1.002-1.353-.167-.544-.057-1.2.379-1.566a1.858 1.858 0 0 0-1.861.699c-.32.437-.428.998-.43 1.54Zm-5.8 9.07c1.737 1.718 2.771-.532 3.192-1.015a42.7 42.7 0 0 1 3.095-3.201c.214-.199.222-.549.098-.813-.124-.264-.351-.463-.572-.654-.329-.284-.859-.203-1.201.064-.343.267-6.35 3.902-4.612 5.619Z" clip-rule="evenodd"/>
  <path fill="#00160A" fill-rule="evenodd" d="M128.306 169.759c3.736-.299 7.574 1.064 10.285 3.652 4.2 4.011 5.284 10.909 2.518 16.015-2.767 5.106-9.138 7.964-14.792 6.636-5.384-1.266-9.696-6.198-10.232-11.703-.536-5.504 2.744-11.175 7.783-13.455a13.397 13.397 0 0 1 4.438-1.145m6.483 4.205c-1.322-.899-2.775-1.651-4.347-1.942-1.788-.33-3.662-.04-5.339.662-4.263 1.786-7.17 6.413-6.892 11.027.278 4.614 3.741 8.873 8.211 10.05 4.47 1.177 9.602-.842 12.041-4.769 2.44-3.926 1.965-9.445-1.136-12.873-.746-.825-1.618-1.529-2.538-2.155Z" clip-rule="evenodd"/>
  <path fill="#00160A" fill-rule="evenodd" d="M122.146 118.113c.026 1.947-.472 4.029.429 5.755 1.668 3.198 6.354 2.604 9.8 1.54l-8.498-9.671 17.605-17.975c.489-.5 1.054-1.033 1.753-1.047.806-.016 1.437.659 1.953 1.278l5.766 6.917c1.584 1.899 3.092 4.976 1.154 6.512l21.816-1.481c-1.362-7.778 1.14-15.655 3.611-23.155.246-.748.544-1.56 1.227-1.952.478-.274 1.057-.285 1.609-.288l39.831-.275c.804-.006 1.653 0 2.348.405.596.347.998.943 1.374 1.521 11.233 17.269 18.245 37.261 20.262 57.762.253 2.571.529 5.381 2.344 7.22 2.764 2.8 3.061 7.679.658 10.793 1.767 1.283 1.331 4.243-.287 5.709-1.618 1.465-3.918 1.84-6.079 2.152-2.867.413-5.987.783-8.494-.67 4.106-.962 8.217-1.901 12.334-2.818l-5.478-36.073c-.602-3.965-1.207-7.944-2.33-11.794-1.208-4.147-3.002-8.094-4.79-12.026l-8.448-18.575c-.307-.674-.639-1.381-1.244-1.81-.733-.517-1.7-.516-2.597-.495l-37.498.893c-.721.017-1.497.053-2.064.5-.465.366-.702.946-.905 1.503-4.922 13.448-2.039 28.346.896 42.363.539 2.576-2.959 3.891-5.58 4.121l-89.764 7.869a32.588 32.588 0 0 0-.308 7.181l5.974.525-1.895.746a111.368 111.368 0 0 1 1.943 18.774c.035 1.917 1.697 3.494 3.526 4.066 1.83.571 3.8.358 5.706.14-2.028.849-4.14 1.714-6.336 1.606-2.195-.107-4.494-1.492-4.899-3.652a130.306 130.306 0 0 1-2.186-20.539l-3.46.084a54.128 54.128 0 0 1-.47-8.705c.017-.626.067-1.31.495-1.768.428-.459 1.107-.556 1.73-.626l9.734-1.092-2.875-19.969c-.083-.575-.154-1.206.158-1.696.347-.544 1.045-.724 1.677-.856a154.177 154.177 0 0 1 25.689-3.147c1.946-.074 3.058 2.273 3.083 4.22Zm-26.508 20.776c.022.188.054.398.203.516.145.115.35.103.533.085l25.468-2.418c.234-.022.501-.063.629-.261.1-.155.08-.356.055-.539l-2.602-19.541c-.024-.178-.053-.369-.174-.503-.163-.18-.434-.199-.677-.204a102.304 102.304 0 0 0-24.978 2.538c-.222.051-.466.117-.593.306-.12.178-.1.411-.076.624l2.212 19.397Zm78.983-26.04c-.037-.302-.1-.647-.362-.801-.167-.098-.374-.09-.567-.079l-22.674 1.28c-.167.009-.347.024-.473.133-.183.16-.173.443-.147.685l2.075 19.577c.022.205.052.428.198.574.188.187.49.176.755.151l23.526-2.156-2.331-19.364Zm-40.599 10.994c.11.1.231.206.378.223.21.025.392-.131.545-.276 5.109-4.856 11.066-8.863 16.175-13.719.23-.219.478-.478.467-.796-.007-.212-.132-.401-.252-.576-2.036-2.963-5.049-6.686-7.334-9.462-.224-.273-.514-.572-.864-.527-.224.028-.402.193-.564.349l-16.931 16.31c-.126.122-.26.264-.258.438.002.175.142.313.271.431l8.367 7.605Zm16.331 2.67c-.044-.28-.106-.591-.337-.754-.205-.145-.48-.128-.73-.104l-23.437 2.232c-.408.039-.887.124-1.065.494-.098.203-.073.442-.047.666l.791 6.692c.037.315.097.669.359.847.209.143.485.126.737.104l24.239-2.102c.201-.017.426-.047.552-.204.131-.162.105-.395.073-.601l-1.135-7.27Zm-1.624-11.651c-.018-.135-.081-.309-.217-.299-.058.005-.106.045-.15.083l-12.056 10.533c4.179-.35 8.353-.749 12.523-1.195.358-.038.772-.112.943-.429.112-.207.083-.458.052-.692l-1.095-8.001Zm96.983 37.595 1.156 6.664c.038.22.116.486.335.534.355.078.478-.456.429-.816l-.781-5.767c-.047-.344-.115-.726-.393-.933-.278-.208-.805-.024-.746.318ZM54.605 196.494c-7.424.117-32.955 2.009-33.396 1.062-.565-1.212 27.277-2.806 33.346-2.902l1.9-.026c5.518-.059-1.85 1.866-1.85 1.866Zm56.705-2.32c1.803 0 3.215.584 2.001 1.01-1.214.426-5.141 1.324-11.718 1.475-6.577.151-14.2.307-25.465.529a1.183 1.183 0 1 1-.046-2.365l19.946-.407c6.056-.131 9.846-.242 15.282-.242Zm90.102-.692a1.181 1.181 0 1 1 .037 2.365l-2.772.034-8.481.059c-1.707.017-70.76.458-71.696-.554-.936-1.013.501-1.196 1.154-1.212 0 0 70.519-.602 72.364-.616l7.052-.047c.82-.008 1.562-.017 2.342-.029Zm76.664-2.276s2.123-.367 17.629.794c.652.049 1.14.617 1.092 1.268-.049.652-7.717.323-18.199.304l-2.883.005c-7.697.034-14.847.242-26.714.731l-14.979.632c-6.392.262-10.205.39-14.842.499a1.183 1.183 0 1 1-.056-2.365l3.724-.097c4.429-.128 8.981-.307 17.052-.651l8.557-.364c13.381-.553 20.822-.756 29.619-.756Z" clip-rule="evenodd"/>
</svg>
