<svg xmlns="http://www.w3.org/2000/svg" width="211" height="146" fill="none" viewBox="0 0 211 146">
  <path fill="#E8342B" d="M0 5a5 5 0 0 1 5-5h198.101c3.67 0 6.09 3.822 4.52 7.14l-64.377 135.999a5 5 0 0 1-4.519 2.861H5a5 5 0 0 1-5-5V5Z"/>
  <mask id="a" width="209" height="146" x="0" y="0" maskUnits="userSpaceOnUse" style="mask-type:alpha">
    <path fill="#E8342B" d="M0 5a5 5 0 0 1 5-5h198.101c3.67 0 6.09 3.822 4.52 7.14l-64.377 135.999a5 5 0 0 1-4.519 2.861H5a5 5 0 0 1-5-5V5Z"/>
  </mask>
  <g mask="url(#a)" opacity=".6">
    <g opacity=".2">
      <path fill="#fff" d="m56.517 46.604-18.41 23.402L-24.044-9h36.815l43.745 55.604Z"/>
      <path fill="#fff" d="m137.066-9-62.15 79.006-18.4-23.402L100.257-9h36.81Z"/>
    </g>
    <g opacity=".2">
      <path fill="#fff" d="M137.066 149h-36.81L56.517 93.402 12.772 149h-36.816l62.15-78.994 18.411-23.402 18.4 23.402L137.065 149Z"/>
      <path fill="#fff" d="m56.517 46.604-18.41 23.402L-24.044-9h36.815l43.745 55.604Z"/>
      <path fill="#fff" d="m137.066-9-62.15 79.006-18.4-23.402L100.257-9h36.81Zm55.969 153.778h-36.81l-43.739-55.597-43.745 55.597H31.925l62.15-78.994 18.411-23.402 18.399 23.402 62.15 78.994Z"/>
    </g>
  </g>
</svg>
